HIERARCHY
ROOT Hips
{
	OFFSET 0.000000 97.167313 0.000000
	CHANNELS 6 Xposition Yposition Zposition Xrotation Yrotation Zrotation
	JOINT Spine
	{
		OFFSET 0.000000 13.784798 0.064400
		CHANNELS 3 Xrotation Yrotation Zrotation
		JOINT Spine1
		{
			OFFSET 0.000000 12.037903 0.404700
			CHANNELS 3 Xrotation Yrotation Zrotation
			JOINT Spine2
			{
				OFFSET 0.000000 17.795601 0.420200
				CHANNELS 3 Xrotation Yrotation Zrotation
				JOINT Neck
				{
					OFFSET 0.000000 39.131302 11.954600
					CHANNELS 3 Xrotation Yrotation Zrotation
					JOINT Head
					{
						OFFSET 0.000000 14.456192 15.627699
						CHANNELS 3 Xrotation Yrotation Zrotation
						JOINT HeadTop_End
						{
							OFFSET 0.000000 15.703506 7.603401
							CHANNELS 3 Xrotation Yrotation Zrotation
							End Site
							{
								OFFSET 0.000000 17.447403 0.000000
							}
						}
					}
				}
				JOINT LeftShoulder
				{
					OFFSET 17.399500 24.608795 1.168800
					CHANNELS 3 Xrotation Yrotation Zrotation
					JOINT LeftArm
					{
						OFFSET 18.980635 5.765305 1.818600
						CHANNELS 3 Xrotation Yrotation Zrotation
						JOINT LeftForeArm
						{
							OFFSET 49.290169 0.000000 0.000000
							CHANNELS 3 Xrotation Yrotation Zrotation
							JOINT LeftHand
							{
								OFFSET 31.562012 0.000000 0.000000
								CHANNELS 3 Xrotation Yrotation Zrotation
								JOINT LeftHandThumb1
								{
									OFFSET 6.133995 -4.388519 7.076070
									CHANNELS 3 Xrotation Yrotation Zrotation
									JOINT LeftHandThumb2
									{
										OFFSET 6.037666 -3.485840 3.485847
										CHANNELS 3 Xrotation Yrotation Zrotation
										JOINT LeftHandThumb3
										{
											OFFSET 6.496506 -3.750763 3.750761
											CHANNELS 3 Xrotation Yrotation Zrotation
											JOINT LeftHandThumb4
											{
												OFFSET 5.616882 -3.242905 3.242910
												CHANNELS 3 Xrotation Yrotation Zrotation
												End Site
												{
													OFFSET -1.254608 7.132141 0.375429
												}
											}
										}
									}
								}
								JOINT LeftHandPinky1
								{
									OFFSET 18.920792 -0.453171 -11.426712
									CHANNELS 3 Xrotation Yrotation Zrotation
									JOINT LeftHandPinky2
									{
										OFFSET 4.919586 0.000000 0.000000
										CHANNELS 3 Xrotation Yrotation Zrotation
										JOINT LeftHandPinky3
										{
											OFFSET 5.233047 0.000000 0.000000
											CHANNELS 3 Xrotation Yrotation Zrotation
											JOINT LeftHandPinky4
											{
												OFFSET 5.571716 0.000000 0.000000
												CHANNELS 3 Xrotation Yrotation Zrotation
												End Site
												{
													OFFSET -3.459808 4.342407 -0.466164
												}
											}
										}
									}
								}
								JOINT LeftHandRing1
								{
									OFFSET 22.726120 -0.094986 -6.500475
									CHANNELS 3 Xrotation Yrotation Zrotation
									JOINT LeftHandRing2
									{
										OFFSET 6.408615 0.000000 0.000000
										CHANNELS 3 Xrotation Yrotation Zrotation
										JOINT LeftHandRing3
										{
											OFFSET 6.150223 0.000000 0.000000
											CHANNELS 3 Xrotation Yrotation Zrotation
											JOINT LeftHandRing4
											{
												OFFSET 6.145386 0.000000 0.000000
												CHANNELS 3 Xrotation Yrotation Zrotation
												End Site
												{
													OFFSET -3.671402 4.923981 -0.202372
												}
											}
										}
									}
								}
								JOINT LeftHandMiddle1
								{
									OFFSET 23.373947 0.000000 0.000001
									CHANNELS 3 Xrotation Yrotation Zrotation
									JOINT LeftHandMiddle2
									{
										OFFSET 6.996567 0.000000 0.000000
										CHANNELS 3 Xrotation Yrotation Zrotation
										JOINT LeftHandMiddle3
										{
											OFFSET 7.015945 0.000000 0.000000
											CHANNELS 3 Xrotation Yrotation Zrotation
											JOINT LeftHandMiddle4
											{
												OFFSET 7.721573 0.000000 0.000000
												CHANNELS 3 Xrotation Yrotation Zrotation
												End Site
												{
													OFFSET -4.651108 6.158463 0.251582
												}
											}
										}
									}
								}
								JOINT LeftHandIndex1
								{
									OFFSET 21.310577 -0.490082 6.209344
									CHANNELS 3 Xrotation Yrotation Zrotation
									JOINT LeftHandIndex2
									{
										OFFSET 7.536453 0.000000 0.000000
										CHANNELS 3 Xrotation Yrotation Zrotation
										JOINT LeftHandIndex3
										{
											OFFSET 7.512344 0.000000 0.000000
											CHANNELS 3 Xrotation Yrotation Zrotation
											JOINT LeftHandIndex4
											{
												OFFSET 10.212402 0.000000 0.000001
												CHANNELS 3 Xrotation Yrotation Zrotation
												End Site
												{
													OFFSET -5.180801 8.690506 1.388433
												}
											}
										}
									}
								}
							}
						}
					}
				}
				JOINT RightShoulder
				{
					OFFSET -17.399500 24.608795 1.168800
					CHANNELS 3 Xrotation Yrotation Zrotation
					JOINT RightArm
					{
						OFFSET -18.980635 5.765305 1.818600
						CHANNELS 3 Xrotation Yrotation Zrotation
						JOINT RightForeArm
						{
							OFFSET -49.290169 0.000000 0.000000
							CHANNELS 3 Xrotation Yrotation Zrotation
							JOINT RightHand
							{
								OFFSET -31.562012 0.000000 0.000000
								CHANNELS 3 Xrotation Yrotation Zrotation
								JOINT RightHandThumb1
								{
									OFFSET -6.133995 -4.388519 7.076070
									CHANNELS 3 Xrotation Yrotation Zrotation
									JOINT RightHandThumb2
									{
										OFFSET -6.037666 -3.485840 3.485847
										CHANNELS 3 Xrotation Yrotation Zrotation
										JOINT RightHandThumb3
										{
											OFFSET -6.496506 -3.750763 3.750761
											CHANNELS 3 Xrotation Yrotation Zrotation
											JOINT RightHandThumb4
											{
												OFFSET -5.616882 -3.242905 3.242910
												CHANNELS 3 Xrotation Yrotation Zrotation
												End Site
												{
													OFFSET 1.254608 7.132141 0.375429
												}
											}
										}
									}
								}
								JOINT RightHandIndex1
								{
									OFFSET -21.310577 -0.490082 6.209344
									CHANNELS 3 Xrotation Yrotation Zrotation
									JOINT RightHandIndex2
									{
										OFFSET -7.536453 0.000000 0.000000
										CHANNELS 3 Xrotation Yrotation Zrotation
										JOINT RightHandIndex3
										{
											OFFSET -7.512344 0.000000 0.000000
											CHANNELS 3 Xrotation Yrotation Zrotation
											JOINT RightHandIndex4
											{
												OFFSET -10.212402 0.000000 0.000001
												CHANNELS 3 Xrotation Yrotation Zrotation
												End Site
												{
													OFFSET 5.180801 8.690506 1.388433
												}
											}
										}
									}
								}
								JOINT RightHandMiddle1
								{
									OFFSET -23.373947 0.000000 0.000001
									CHANNELS 3 Xrotation Yrotation Zrotation
									JOINT RightHandMiddle2
									{
										OFFSET -6.996567 0.000000 0.000000
										CHANNELS 3 Xrotation Yrotation Zrotation
										JOINT RightHandMiddle3
										{
											OFFSET -7.015945 0.000000 0.000000
											CHANNELS 3 Xrotation Yrotation Zrotation
											JOINT RightHandMiddle4
											{
												OFFSET -7.721573 0.000000 0.000000
												CHANNELS 3 Xrotation Yrotation Zrotation
												End Site
												{
													OFFSET 4.651108 6.158463 0.251582
												}
											}
										}
									}
								}
								JOINT RightHandRing1
								{
									OFFSET -22.726120 -0.094986 -6.500475
									CHANNELS 3 Xrotation Yrotation Zrotation
									JOINT RightHandRing2
									{
										OFFSET -6.408615 0.000000 0.000000
										CHANNELS 3 Xrotation Yrotation Zrotation
										JOINT RightHandRing3
										{
											OFFSET -6.150223 0.000000 0.000000
											CHANNELS 3 Xrotation Yrotation Zrotation
											JOINT RightHandRing4
											{
												OFFSET -6.145386 0.000000 0.000000
												CHANNELS 3 Xrotation Yrotation Zrotation
												End Site
												{
													OFFSET 3.671402 4.923981 -0.202372
												}
											}
										}
									}
								}
								JOINT RightHandPinky1
								{
									OFFSET -18.920792 -0.453171 -11.426712
									CHANNELS 3 Xrotation Yrotation Zrotation
									JOINT RightHandPinky2
									{
										OFFSET -4.919586 0.000000 0.000000
										CHANNELS 3 Xrotation Yrotation Zrotation
										JOINT RightHandPinky3
										{
											OFFSET -5.233047 0.000000 0.000000
											CHANNELS 3 Xrotation Yrotation Zrotation
											JOINT RightHandPinky4
											{
												OFFSET -5.571716 0.000000 0.000000
												CHANNELS 3 Xrotation Yrotation Zrotation
												End Site
												{
													OFFSET 3.459808 4.342407 -0.466164
												}
											}
										}
									}
								}
							}
						}
					}
				}
			}
		}
	}
	JOINT LeftUpLeg
	{
		OFFSET 19.899099 -7.885101 -3.429500
		CHANNELS 3 Xrotation Yrotation Zrotation
		JOINT LeftLeg
		{
			OFFSET 1.745560 -36.997807 10.304700
			CHANNELS 3 Xrotation Yrotation Zrotation
			JOINT LeftFoot
			{
				OFFSET -1.745558 -29.803308 -13.615400
				CHANNELS 3 Xrotation Yrotation Zrotation
				JOINT LeftToeBase
				{
					OFFSET 1.181900 -18.539904 15.226099
					CHANNELS 3 Xrotation Yrotation Zrotation
					JOINT LeftToe_End
					{
						OFFSET -0.863701 1.402801 16.534700
						CHANNELS 3 Xrotation Yrotation Zrotation
						End Site
						{
							OFFSET 0.000000 16.616566 0.000000
						}
					}
				}
			}
		}
	}
	JOINT RightUpLeg
	{
		OFFSET -19.899099 -7.885101 -3.429500
		CHANNELS 3 Xrotation Yrotation Zrotation
		JOINT RightLeg
		{
			OFFSET -1.745560 -36.997807 10.304700
			CHANNELS 3 Xrotation Yrotation Zrotation
			JOINT RightFoot
			{
				OFFSET 1.745558 -29.803308 -13.615400
				CHANNELS 3 Xrotation Yrotation Zrotation
				JOINT RightToeBase
				{
					OFFSET -1.181900 -18.539904 15.226099
					CHANNELS 3 Xrotation Yrotation Zrotation
					JOINT RightToe_End
					{
						OFFSET 0.863701 1.402801 16.534700
						CHANNELS 3 Xrotation Yrotation Zrotation
						End Site
						{
							OFFSET 0.000000 16.616566 0.000000
						}
					}
				}
			}
		}
	}
}
MOTION
Frames: 6
Frame Time: 0.033333
16.553047 86.174034 64.360542 170.653533 15.707260 -174.941143 1.609121 0.134189 0.161678 3.215108 -0.330938 -2.193941 3.215110 -0.330941 -2.193939 -3.102602 1.889799 0.841196 -6.507867 9.564817 -9.237601 -0.000000 -0.000000 -0.000000 0.591689 -3.289141 -10.946867 12.015489 -3.604296 -74.453775 16.066842 -19.722043 5.783126 -6.004618 -12.542541 -0.093126 25.111242 -2.687269 20.499098 9.304992 24.441164 -0.847863 -2.521160 -8.459282 -4.290575 -0.000005 0.000003 -0.000001 -5.698668 1.174826 -43.952739 10.001133 3.459251 -50.341961 10.463910 6.463322 -29.880411 0.000000 0.000000 -0.000006 -1.227816 6.340738 -44.477854 7.491182 2.055233 -50.574450 5.786970 -0.288644 -9.889667 0.000001 -0.000001 -0.000002 0.976137 7.422054 -32.221711 5.809224 1.256792 -45.781112 5.743670 -0.254554 -5.489727 0.000001 -0.000003 0.000001 0.599982 6.911488 -23.883874 2.733485 1.542682 -36.765973 4.400524 -2.444499 -4.361231 0.000001 0.000003 -0.000006 0.501146 4.481176 19.444744 2.630766 -14.009891 60.661751 -18.777674 15.328492 5.889327 -3.472252 5.910095 -29.711449 3.824838 -12.345961 -1.042576 4.523891 -9.504799 0.488619 3.860024 -12.119576 -3.867340 0.000005 0.000001 0.000001 3.545359 -9.668633 69.326700 8.886354 -3.241715 112.372560 5.374744 0.824722 34.768173 -0.000003 0.000001 -0.000003 5.660017 -9.815695 93.151698 8.809068 -2.682467 83.366277 6.985506 2.802871 35.996483 -0.000004 0.000000 -0.000004 4.831719 -12.380568 97.852507 10.912804 -3.225604 91.663502 8.357681 3.303296 55.647108 -0.000002 -0.000001 -0.000005 0.269984 -10.740396 93.149772 10.737841 -3.968350 60.274323 11.067072 -1.040091 24.703602 -0.000001 -0.000001 -0.000001 -35.398668 3.472408 -10.787330 47.336302 17.884746 0.988749 -8.034635 0.155627 12.466261 0.615182 1.498088 -11.611017 -0.000001 -0.000000 0.000000 -12.388324 -47.033171 0.586117 31.593740 1.227602 -20.513930 -30.031795 -5.290473 12.600260 -10.785039 -1.487901 -0.696234 0.000000 0.000002 -0.000000 
17.061899 86.226372 62.826477 170.296232 13.314530 -174.164674 1.556224 0.243623 -0.268025 3.112819 -0.234810 -2.614888 3.112825 -0.234807 -2.614887 -3.136868 1.889872 0.522806 -6.708288 9.201133 -8.248182 -0.000000 0.000000 0.000001 0.601005 -2.701828 -11.481004 12.191433 -3.122764 -74.150637 18.975427 -17.783166 6.271916 -6.129504 -13.586991 -0.332628 25.111242 -2.687267 20.499100 9.304993 24.441163 -0.847870 -2.521160 -8.459287 -4.290576 0.000003 0.000003 0.000000 -5.698667 1.174825 -43.952735 10.001133 3.459252 -50.341957 10.463912 6.463322 -29.880411 -0.000001 0.000000 -0.000006 -1.227815 6.340739 -44.477850 7.491189 2.055235 -50.574446 5.786968 -0.288647 -9.889667 0.000000 -0.000002 0.000007 0.976140 7.422054 -32.221711 5.809228 1.256788 -45.781112 5.743676 -0.254552 -5.489718 0.000001 0.000001 0.000001 0.599980 6.911485 -23.883872 2.733486 1.542681 -36.765973 4.400518 -2.444502 -4.361233 0.000002 -0.000001 0.000003 0.414754 5.616620 18.874316 2.637064 -14.132020 60.669107 -17.519644 15.655046 5.999648 -3.983015 5.549203 -28.790204 3.824834 -12.345963 -1.042577 4.523888 -9.504802 0.488622 3.860023 -12.119577 -3.867340 0.000003 -0.000001 -0.000001 3.545356 -9.668635 69.326707 8.886352 -3.241711 112.372560 5.374740 0.824714 34.768173 -0.000000 -0.000001 -0.000002 5.660019 -9.815699 93.151705 8.809072 -2.682471 83.366284 6.985509 2.802871 35.996480 -0.000001 0.000000 -0.000004 4.831721 -12.380571 97.852500 10.912796 -3.225606 91.663502 8.357681 3.303296 55.647108 -0.000001 -0.000001 -0.000003 0.269984 -10.740396 93.149772 10.737838 -3.968344 60.274329 11.067071 -1.040093 24.703602 -0.000000 0.000001 0.000002 -38.476474 3.190013 -10.704009 44.409808 19.368342 0.942857 -4.463850 1.212380 10.382269 1.102104 1.459816 -9.841243 0.000000 -0.000000 0.000000 -11.869432 -50.702782 -1.372617 31.326113 4.326637 -19.716342 -31.534915 -4.967621 11.974302 -12.097471 -2.246348 0.494254 -0.000000 -0.000001 0.000000 
17.554134 86.167969 60.942097 169.215041 11.232717 -173.231301 1.284774 0.262631 -0.729765 2.567996 -0.296177 -2.998114 2.567990 -0.296184 -2.998112 -3.418127 1.924226 0.288346 -6.341268 9.006829 -7.397815 0.000000 0.000000 0.000001 0.613857 -2.024079 -11.720740 12.141344 -2.603886 -73.974514 22.107239 -15.020184 6.341823 -6.404970 -14.804819 -1.474316 25.111238 -2.687268 20.499100 9.304995 24.441166 -0.847864 -2.521163 -8.459278 -4.290574 -0.000000 -0.000000 -0.000001 -5.698670 1.174822 -43.952739 10.001134 3.459250 -50.341954 10.463907 6.463320 -29.880408 0.000001 -0.000004 -0.000001 -1.227818 6.340738 -44.477854 7.491186 2.055234 -50.574450 5.786970 -0.288640 -9.889673 0.000000 -0.000001 0.000005 0.976142 7.422054 -32.221711 5.809230 1.256791 -45.781112 5.743674 -0.254557 -5.489722 0.000001 -0.000001 0.000004 0.599977 6.911488 -23.883870 2.733479 1.542683 -36.765969 4.400520 -2.444494 -4.361231 -0.000002 0.000001 0.000003 0.330624 6.849488 18.328702 3.037613 -14.445193 60.952349 -16.013233 16.674346 5.683476 -4.408295 4.575268 -27.931399 3.824832 -12.345966 -1.042577 4.523894 -9.504798 0.488621 3.860015 -12.119576 -3.867346 -0.000000 -0.000002 0.000002 3.545355 -9.668635 69.326693 8.886350 -3.241713 112.372560 5.374740 0.824722 34.768180 0.000002 -0.000002 0.000003 5.660019 -9.815696 93.151698 8.809072 -2.682472 83.366284 6.985509 2.802870 35.996480 0.000001 0.000002 -0.000001 4.831718 -12.380572 97.852500 10.912796 -3.225606 91.663502 8.357683 3.303300 55.647112 0.000004 -0.000002 -0.000002 0.269982 -10.740396 93.149772 10.737845 -3.968349 60.274329 11.067070 -1.040100 24.703604 0.000002 -0.000000 0.000006 -42.420652 2.614226 -10.431518 40.872228 19.508735 0.914607 0.205607 1.631359 7.584387 1.057955 1.081432 -6.570204 0.000002 0.000000 -0.000000 -12.725636 -53.524535 -3.658252 31.337468 6.922006 -19.195548 -32.207651 -4.614548 11.568103 -13.678835 -3.216868 2.003239 -0.000000 0.000001 -0.000001 
18.059511 86.007019 58.816666 167.886897 9.316815 -172.324211 0.912264 0.204805 -1.226178 1.818038 -0.466111 -3.329387 1.818036 -0.466113 -3.329386 -3.892551 1.902886 0.040559 -5.779496 8.664342 -6.640514 0.000000 -0.000000 0.000001 0.626508 -1.448932 -11.885794 12.097426 -2.272803 -73.602180 24.571226 -12.271282 5.932017 -6.761052 -15.931223 -3.022590 25.111247 -2.687271 20.499100 9.304990 24.441166 -0.847866 -2.521158 -8.459284 -4.290579 0.000000 -0.000001 -0.000001 -5.698662 1.174822 -43.952735 10.001131 3.459253 -50.341954 10.463909 6.463322 -29.880411 0.000000 0.000000 -0.000002 -1.227811 6.340739 -44.477850 7.491183 2.055233 -50.574450 5.786970 -0.288649 -9.889670 0.000002 0.000001 0.000003 0.976139 7.422054 -32.221711 5.809229 1.256793 -45.781115 5.743674 -0.254558 -5.489727 0.000002 -0.000000 0.000004 0.599980 6.911485 -23.883872 2.733485 1.542682 -36.765973 4.400516 -2.444500 -4.361232 -0.000003 0.000001 0.000001 0.260389 8.038774 17.803224 3.629112 -15.057410 61.628838 -14.538980 18.149491 5.048303 -4.546880 3.057884 -27.674700 3.824833 -12.345960 -1.042577 4.523896 -9.504796 0.488616 3.860022 -12.119577 -3.867336 0.000003 -0.000004 -0.000001 3.545352 -9.668632 69.326700 8.886354 -3.241709 112.372560 5.374742 0.824717 34.768180 -0.000000 0.000000 -0.000001 5.660016 -9.815694 93.151698 8.809072 -2.682472 83.366284 6.985505 2.802870 35.996483 0.000001 0.000000 -0.000008 4.831720 -12.380570 97.852500 10.912799 -3.225607 91.663502 8.357681 3.303298 55.647112 0.000001 -0.000002 -0.000002 0.269982 -10.740395 93.149765 10.737839 -3.968346 60.274323 11.067070 -1.040093 24.703604 0.000004 0.000003 -0.000001 -46.158453 2.027601 -10.138286 36.465533 18.977124 0.941583 5.087121 1.397369 4.514298 1.537642 0.341549 -2.676242 -0.000002 0.000000 0.000000 -13.855263 -55.449972 -5.928262 31.311732 8.805281 -18.658380 -32.549314 -4.357761 11.382336 -14.993913 -4.296954 3.551293 0.000000 -0.000000 0.000000 
18.564489 85.785187 56.570755 167.208645 7.707760 -171.702322 0.671416 0.148954 -1.690353 1.333437 -0.595934 -3.589608 1.333434 -0.595932 -3.589608 -4.195506 1.836955 -0.532139 -5.923440 7.948225 -5.697999 0.000000 -0.000000 0.000001 0.639022 -1.215990 -12.253570 12.131111 -2.134160 -72.791614 26.156877 -9.995208 5.287493 -7.115871 -17.037844 -4.349243 25.111240 -2.687268 20.499100 9.304992 24.441166 -0.847865 -2.521159 -8.459290 -4.290578 0.000003 -0.000001 -0.000002 -5.698676 1.174825 -43.952735 10.001130 3.459250 -50.341957 10.463908 6.463321 -29.880408 0.000003 0.000001 -0.000004 -1.227825 6.340738 -44.477850 7.491183 2.055234 -50.574450 5.786968 -0.288642 -9.889669 -0.000001 -0.000002 0.000007 0.976136 7.422053 -32.221715 5.809224 1.256789 -45.781115 5.743674 -0.254559 -5.489727 -0.000000 0.000000 0.000004 0.599973 6.911488 -23.883872 2.733485 1.542681 -36.765969 4.400521 -2.444494 -4.361230 -0.000001 0.000001 -0.000001 0.227688 8.875918 17.243724 4.269401 -15.733776 62.568460 -13.134695 20.128252 4.449043 -4.525055 0.969334 -28.205570 3.824833 -12.345959 -1.042580 4.523896 -9.504804 0.488616 3.860029 -12.119579 -3.867341 -0.000001 0.000000 0.000002 3.545355 -9.668632 69.326700 8.886354 -3.241712 112.372567 5.374740 0.824720 34.768173 -0.000000 0.000000 0.000001 5.660021 -9.815694 93.151705 8.809073 -2.682475 83.366291 6.985507 2.802871 35.996483 0.000002 0.000001 -0.000004 4.831718 -12.380567 97.852500 10.912798 -3.225606 91.663502 8.357681 3.303298 55.647112 -0.000001 -0.000000 -0.000005 0.269984 -10.740393 93.149765 10.737840 -3.968342 60.274329 11.067072 -1.040095 24.703601 0.000003 0.000004 -0.000000 -48.557567 1.686209 -9.970528 31.236047 17.926786 1.066343 9.963657 0.864156 2.406041 2.506703 -0.115837 0.427389 -0.000001 -0.000000 0.000000 -13.507765 -56.269793 -7.652891 30.872486 9.866226 -17.686437 -32.727995 -4.366740 11.700809 -15.872583 -5.184098 4.601498 0.000001 -0.000001 0.000001 
19.009314 85.516235 54.223049 167.673003 6.723461 -171.407053 0.684367 0.188904 -2.086241 1.360090 -0.537872 -3.768839 1.360085 -0.537875 -3.768837 -4.042289 1.801977 -1.557907 -7.108054 6.939010 -4.393945 0.000000 0.000000 0.000001 0.651220 -1.278387 -12.912300 12.180078 -1.919397 -71.601406 27.241931 -8.288313 4.683031 -7.410766 -18.354527 -4.994169 25.111247 -2.687270 20.499102 9.304995 24.441164 -0.847863 -2.521161 -8.459284 -4.290579 -0.000000 -0.000001 -0.000003 -5.698669 1.174822 -43.952739 10.001130 3.459249 -50.341957 10.463908 6.463319 -29.880408 -0.000000 0.000000 -0.000002 -1.227813 6.340739 -44.477850 7.491187 2.055235 -50.574443 5.786970 -0.288642 -9.889670 -0.000001 -0.000001 0.000003 0.976144 7.422054 -32.221711 5.809226 1.256791 -45.781122 5.743673 -0.254555 -5.489724 0.000002 0.000000 0.000004 0.599984 6.911488 -23.883874 2.733483 1.542686 -36.765973 4.400521 -2.444497 -4.361233 -0.000000 0.000001 -0.000001 0.239345 9.170098 16.650905 4.757466 -16.136004 63.451850 -11.469256 22.439185 3.867617 -4.604572 -1.394574 -29.030186 3.824835 -12.345959 -1.042580 4.523895 -9.504806 0.488618 3.860017 -12.119581 -3.867346 -0.000001 -0.000002 0.000003 3.545356 -9.668633 69.326700 8.886345 -3.241714 112.372554 5.374742 0.824722 34.768176 -0.000001 -0.000003 -0.000002 5.660018 -9.815696 93.151705 8.809072 -2.682474 83.366291 6.985506 2.802869 35.996480 -0.000001 0.000002 -0.000004 4.831723 -12.380569 97.852493 10.912800 -3.225607 91.663502 8.357680 3.303296 55.647105 0.000002 -0.000001 -0.000002 0.269985 -10.740392 93.149765 10.737834 -3.968347 60.274329 11.067073 -1.040093 24.703602 0.000002 0.000003 -0.000001 -49.105905 1.760264 -10.095196 25.659962 16.241088 1.180832 14.804338 0.736615 2.435972 2.924331 -0.124490 1.156161 -0.000001 0.000000 0.000000 -11.212058 -56.537738 -8.544602 30.455339 10.371781 -16.536458 -33.275087 -4.389401 11.516052 -16.405546 -5.926010 5.763036 -0.000000 -0.000000 0.000000 
